Coordinates
version=1
nRows=26
nColumns=18
inDegrees=yes

Units are S.I. units (second, meters, Newtons, ...)
If the header above contains a line with 'inDegrees', this indicates whether rotational values are in degrees (yes) or radians (no).

endheader
time	TH_y	TH_x	TH_z	TH_x_trans	TH_y_trans	TH_z_trans	SC_y	SC_z	SC_x	AC_y	AC_z	AC_x	GH_y	GH_z	GH_yy	EL_x	PS_y
     66.51000000	   -151.35544070	     -1.12961094	      1.65766202	      0.01410128	      1.48429870	      0.02499008	    -29.73526350	     -1.88807736	     -1.19340525	     41.57423261	     -6.16806213	     19.36171626	    -10.68346957	     41.67991885	      3.83786232	     85.59588620	    107.28217112
     66.52000000	   -151.30110338	     -1.13938926	      1.49161302	      0.01358055	      1.48419949	      0.02548455	    -29.77392154	     -1.86488649	     -1.47471246	     41.62686305	     -6.69009592	     19.54008919	    -10.88395577	     41.20660325	      3.71139178	     85.65965290	    107.09339396
     66.53000000	   -151.24312040	     -1.14802141	      1.33488272	      0.01306848	      1.48412369	      0.02592615	    -29.81793718	     -1.84990858	     -1.75823309	     41.68460117	     -7.20577369	     19.70544205	    -11.08072644	     40.74037401	      3.59097474	     85.73195116	    106.91626153
     66.54000000	   -151.17096285	     -1.14903804	      1.16636164	      0.01250012	      1.48401933	      0.02639080	    -29.85352509	     -1.80310850	     -2.05092466	     41.73864300	     -7.71997262	     19.86245209	    -11.28289853	     40.28030986	      3.47429791	     85.82809988	    106.72707634
     66.55000000	   -151.09773246	     -1.15201156	      1.00293011	      0.01195135	      1.48392417	      0.02684303	    -29.88855202	     -1.75646327	     -2.34494349	     41.79869361	     -8.22397794	     20.00474361	    -11.47752903	     39.83020687	      3.36793417	     85.93667782	    106.53779807
     66.56000000	   -151.07708585	     -1.13059349	      0.79303215	      0.01131377	      1.48388062	      0.02732593	    -29.74232741	     -1.66891464	     -2.68142220	     42.26054706	     -8.70052626	     19.99938888	    -11.89228572	     39.60649815	      3.14738717	     86.07646714	    104.29798772
     66.57000000	   -150.99694500	     -1.15055662	      0.66541369	      0.01079412	      1.48377946	      0.02776380	    -29.83245328	     -1.67570893	     -2.94794426	     42.35476839	     -9.15944157	     20.11794539	    -12.03828317	     39.18578098	      3.07171238	     86.13203862	    104.26700861
     66.58000000	   -150.89483191	     -1.14979497	      0.48895271	      0.01024899	      1.48367593	      0.02818810	    -29.88015222	     -1.60362716	     -3.23530391	     42.41619135	     -9.61181874	     20.21920465	    -12.20038774	     38.78159555	      3.00284115	     86.26533934	    104.21146124
     66.59000000	   -150.81705082	     -1.14533439	      0.30670844	      0.00969700	      1.48359317	      0.02860907	    -29.89213008	     -1.53591242	     -3.52210183	     42.47161859	    -10.03720840	     20.28993189	    -12.34778968	     38.40293857	      2.95549468	     86.41672140	    104.13523038
     66.60000000	   -150.74948938	     -1.14769976	      0.14459338	      0.00919107	      1.48351916	      0.02901716	    -29.90191856	     -1.49666196	     -3.80032927	     42.52894506	    -10.43711089	     20.33728538	    -12.47719312	     38.04527753	      2.92441966	     86.54667592	    104.05101818
     66.61000000	   -150.67954534	     -1.14505435	     -0.01103174	      0.00867923	      1.48344434	      0.02937912	    -29.91021103	     -1.46361042	     -4.07273317	     42.58969460	    -10.81350397	     20.36370360	    -12.58830856	     37.70707417	      2.91226649	     86.67135100	    103.96438960
     66.62000000	   -150.61104045	     -1.12932816	     -0.18743383	      0.00818870	      1.48338115	      0.02974361	    -29.89031833	     -1.39740184	     -4.35279685	     42.62910514	    -11.17053984	     20.36684994	    -12.69615231	     37.39051132	      2.91578755	     86.81747853	    103.84409321
     66.63000000	   -150.61992644	     -1.14355883	     -0.33847676	      0.00762057	      1.48343838	      0.03016258	    -29.93999444	     -1.50648778	     -4.55599845	     42.74355517	    -11.42768568	     20.31637134	    -12.71972118	     37.14849654	      2.96404573	     86.89610745	    103.82418134
     66.64000000	   -150.46855296	     -1.09013308	     -0.46650879	      0.00725057	      1.48326451	      0.03031316	    -29.88728240	     -1.33522321	     -4.87948245	     42.73946870	    -11.82147056	     20.32851810	    -12.86262745	     36.80835218	      2.95765462	     87.01186478	    103.69360206
     66.65000000	   -150.47941136	     -1.10279332	     -0.60773507	      0.00675238	      1.48327774	      0.03075079	    -29.92513674	     -1.41452610	     -5.08462742	     42.84771909	    -12.05972198	     20.25937784	    -12.88038211	     36.58734221	      3.01951504	     87.09731736	    103.66960374
     66.66000000	   -150.34073000	     -1.00845414	     -0.76144630	      0.00632545	      1.48316129	      0.03080901	    -29.79877753	     -1.20982429	     -5.41739117	     42.78598834	    -12.42825761	     20.24858542	    -13.01832073	     36.27025089	      3.03182862	     87.23707028	    103.48783889
     66.67000000	   -150.33396148	     -1.01239298	     -0.85868057	      0.00588340	      1.48303716	      0.03118054	    -29.81098536	     -1.24704748	     -5.63392080	     42.89498598	    -12.66679299	     20.17052513	    -13.02869112	     36.04933930	      3.11065720	     87.31358269	    103.45238873
     66.68000000	   -150.20177653	     -0.89295550	     -0.98396653	      0.00548976	      1.48301116	      0.03115803	    -29.67285209	     -1.06533649	     -5.96304693	     42.80773380	    -13.01832078	     20.14728969	    -13.16584105	     35.74817962	      3.12298902	     87.39175790	    103.27387753
     66.69000000	   -150.18365919	     -0.88417894	     -1.06305533	      0.00509603	      1.48287847	      0.03151752	    -29.66165535	     -1.05932947	     -6.19105968	     42.88757048	    -13.25979980	     20.07037096	    -13.18709561	     35.52812799	      3.19969543	     87.46804133	    103.21850826
     66.70000000	   -150.08455652	     -0.78979888	     -1.12497622	      0.00469550	      1.48276598	      0.03150721	    -29.58047240	     -0.94055890	     -6.48292824	     42.88698136	    -13.57267061	     20.02451372	    -13.27588528	     35.25626413	      3.23982434	     87.51214793	    103.12110509
     66.71000000	   -149.95303299	     -0.66991708	     -1.30476667	      0.00426886	      1.48274514	      0.03146677	    -29.32720520	     -0.74336998	     -6.80753180	     42.68328586	    -13.90979721	     20.02634562	    -13.42017628	     34.95729333	      3.24295307	     87.63067379	    102.86683140
     66.72000000	   -149.95530057	     -0.60192055	     -1.41531487	      0.00388313	      1.48255286	      0.03161232	    -29.06602043	     -0.59741126	     -7.13095513	     42.43478643	    -14.21272700	     19.99128192	    -13.42968158	     34.62666918	      3.37905777	     87.82514467	    102.38504366
     66.73000000	   -149.85947549	     -0.52475428	     -1.42512866	      0.00355136	      1.48250168	      0.03164076	    -29.04957439	     -0.56955233	     -7.36924924	     42.43796745	    -14.48729662	     19.95876033	    -13.47985631	     34.37045782	      3.42283939	     87.73618292	    102.27525189
     66.74000000	   -149.69659567	     -0.45138698	     -1.46206600	      0.00348734	      1.48241124	      0.03163620	    -29.17066733	     -0.47703845	     -7.75640802	     41.31498840	    -14.70148893	     19.92993844	    -12.83688520	     33.68919384	      4.20249700	     87.72264103	    100.22891784
     66.75000000	   -149.58971606	     -0.38050938	     -1.52325757	      0.00314015	      1.48232248	      0.03166895	    -29.08543623	     -0.37932620	     -7.99328980	     41.30138764	    -14.98109211	     19.92065272	    -12.92773452	     33.44436059	      4.20773040	     87.69055721	    100.23374537
     66.76000000	   -149.55584855	     -0.36436152	     -1.60202245	      0.00274724	      1.48228427	      0.03196891	    -29.06634387	     -0.39540610	     -8.16710529	     41.35135831	    -15.19126263	     19.88529716	    -12.96775906	     33.25484534	      4.23392125	     87.70501570	    100.23143501
